<svg width="110" viewBox="0 0 1700 421" fill="none" xmlns="http://www.w3.org/2000/svg">
  <path d="M653.822 118.005c-7.198 15.425-24.681 25.966-42.677 25.966-28.28 0-50.904-24.167-50.904-53.99 0-29.565 22.624-53.988 50.904-53.988 17.739 0 35.221 9.77 42.42 25.452h42.934C684.673 25.709 650.994 0 611.145 0c-49.619 0-89.982 40.363-89.982 89.982s40.363 89.982 89.982 89.982c39.849 0 73.785-25.966 85.611-61.959h-42.934Zm240.937-28.28c0 26.994-24.424 51.675-51.419 51.675-26.994 0-51.418-24.681-51.418-51.675 0-26.995 24.424-51.418 51.418-51.418 26.995 0 51.419 24.423 51.419 51.418Zm38.563.257C933.322 41.649 891.674 0 843.34 0c-48.333 0-89.981 41.649-89.981 89.982s41.648 89.982 89.981 89.982c48.334 0 89.982-41.649 89.982-89.982Zm103.488 51.932V38.307h11.57c29.82 0 49.87 22.624 49.87 51.675s-20.31 51.932-49.87 51.932h-11.57ZM998.76 2.571v174.822h51.93c49.62 0 86.9-38.05 86.9-87.411 0-49.362-37.54-87.411-86.9-87.411h-51.93Zm242.89 174.822V2.571h-38.56v174.822h38.56Zm209.15 0V2.571h-38.56v109.007L1352.08 2.571h-38.56v174.822h38.56V68.386l60.16 109.007h38.56Zm159.48-141.4c16.96 0 34.45 6.941 42.93 25.452h42.42C1683.55 25.195 1648.84 0 1610.28 0c-49.37 0-89.99 40.62-89.99 89.982 0 49.361 40.62 89.982 89.99 89.982 49.87 0 89.72-40.363 89.72-89.982v-5.913h-86.13v29.051h44.48c-9.51 26.481-31.11 31.879-48.07 31.879-27.77 0-50.91-24.937-50.91-54.503 0-29.565 23.14-54.503 50.91-54.503Z" fill="#000"/>
  <path d="M598.431 387.013c-19.448 0-36.268-9.514-37.319-30.343h-39.947c.263 42.686 36.268 61.715 75.689 61.715 36.53 0 74.112-15.172 74.112-56.315 0-66.601-103.284-44.229-103.284-75.344 0-13.114 15.506-18.257 26.544-18.257 19.71 0 30.486 5.914 32.588 24.172h38.107c-1.314-39.858-34.428-55.801-71.221-55.801-32.588 0-66.753 16.972-66.753 52.972 0 64.544 103.284 42.686 103.284 76.63 0 15.685-19.448 20.571-31.8 20.571Zm218.1-147.602v69.687h-58.869v-69.687h-39.421v174.86h39.421V344.07h58.869v70.201h42.049v-174.86h-42.049Zm201.649 0V340.47c0 24.171-7.36 37.8-34.425 37.8-26.806 0-34.428-13.629-34.428-37.8V239.411h-39.421v106.716c0 46.543 27.332 70.715 73.849 70.715 46.515 0 73.845-24.172 73.845-70.715V239.411h-39.42Zm166.71 34.972h50.99v-34.972h-141.39v34.972h50.98v139.888h39.42V274.383Zm167.64 0h50.98v-34.972h-141.39v34.972h50.99v139.888h39.42V274.383Zm91.68 139.888h103.54v-34.972h-64.12V239.411h-39.42v174.86Zm255.78-34.972h-64.13V344.07h61.5v-34.972h-61.5v-34.715h64.13v-34.972h-103.55v174.86h103.55v-34.972Z" fill="#ED155A"/>
  <path d="M138.584 1.747a2.312 2.312 0 0 1 3.253 0l137.336 135.91c1.469 1.453.44 3.956-1.626 3.956H2.874c-2.066 0-3.095-2.503-1.627-3.956L138.584 1.747Zm280.107 277.604a2.314 2.314 0 0 1 0 3.253L282.78 419.941c-1.453 1.468-3.956.439-3.956-1.627V143.641c0-2.066 2.503-3.095 3.957-1.626l135.91 137.336Z" fill="#A60A39"/>
  <path d="M138.941 1c2.808-.002 2.819.01 6.282.01h268.006a6.27 6.27 0 0 1 6.269 6.269v268.27a6.269 6.269 0 0 1-6.269 6.269H145.223c-3.463 0-6.282-2.809-6.282-6.271V1Z" fill="#ED155A"/>
  <mask id="a" maskUnits="userSpaceOnUse" x="138" y="1" width="282" height="281">
    <path d="M419.5 275.543v6.27l-274.275-.001a6.27 6.27 0 0 1-6.27-6.269V7.273a6.27 6.27 0 0 1 6.27-6.27h268.006a6.27 6.27 0 0 1 6.269 6.27v268.27Z" fill="#ED155A"/>
  </mask>
  <g mask="url(#a)">
    <path d="M628.068 81.374a6.276 6.276 0 0 1 0 8.87l-451.75 452.175a6.26 6.26 0 0 1-8.861 0L27.461 402.292a6.276 6.276 0 0 1 0-8.87L479.21-58.754a6.261 6.261 0 0 1 8.861 0L628.068 81.373Z" fill="#D0124F"/>
  </g>
  <path d="M363.915 106.432c0 27.284-22.118 49.402-49.402 49.402-27.283 0-49.401-22.118-49.401-49.402 0-27.283 22.118-49.4 49.401-49.4 27.284 0 49.402 22.117 49.402 49.4Z" fill="#fff"/>
  <path d="M55.559 335.607.257 389.357a.845.845 0 0 0-.257.607v29.649c0 .467.38.846.848.846h27.656c.219 0 .43-.084.587-.236l56.486-54.18a.846.846 0 0 0 .016-1.205L56.755 335.62a.85.85 0 0 0-1.196-.013Zm-2.842-138.171L.68 248.337a.784.784 0 0 0-.237.561v54.133c0 .698.85 1.052 1.355.564l80.634-78.066c-.287-.295-.245-.254-.561-.564l-28.482-28.176c-.397.371-.361.343-.672.647Zm142.728 141.173-82.346 80.08c-.51.496-.162 1.365.547 1.365h56.9a.781.781 0 0 0 .554-.23l52.717-52.604c-.283-.29-.248-.255-.557-.566l-27.259-27.487c-.304-.307-.288-.297-.556-.558Z" fill="#A60A39"/>
</svg>
